# xmcd
#
# Track frame offsets:
#	150
#	15162
#	28962
#	44587
#	60550
#	76605
#	91834
#	109335
#	125337
#	142209
#	155543
#	172313
#	186852
#	202539
#
# Disc length: 2907 seconds
#
# Revision: 1
# Processed by: cddbd v1.5.2PL0 Copyright (c) Steve Scherf et al.
# Submitted via: audiograbber 1.83.01
#
DISCID=b60b590e
DTITLE=Various Artist - CDX Volume 564 (February 18, 2013)
DYEAR=2013
DGENRE=Country
TTITLE0=Big and Rich - Cheat On You
TTITLE1=Phil Vassar - Love Is Alive
TTITLE2=Gary Allan - Pieces
TTITLE3=JJ Lawhorn - Stomping Grounds
TTITLE4=Jon Pardi - Up All Night 
TTITLE5=Billy Dean - I Can't Leave A Good Thing
TTITLE6=Aaron and Amanda Crabb - I'm Learning
TTITLE7=Susan Ashton - Love is Alive
TTITLE8=Shelley Laine - Born Again American
TTITLE9=Bobby Dean - Kiss My Doublewide
TTITLE10=Tim Culpepper - Pourin' Whiskey On Pain
TTITLE11=Keith Bryant - Ridin' With The Legend 
TTITLE12=Jetset Getset - Saturday Night
TTITLE13=Jeff Maddox - These Days
EXTD=
EXTT0=
EXTT1=
EXTT2=
EXTT3=
EXTT4=
EXTT5=
EXTT6=
EXTT7=
EXTT8=
EXTT9=
EXTT10=
EXTT11=
EXTT12=
EXTT13=
PLAYORDER=
